# Blender v2.79 (sub 0) OBJ File: 'Test2.blend'
# www.blender.org
mtllib MirrorWall_Floor.mtl
o pCube2_Mesh.001
v 4.688035 0.121548 -4.639034
v -4.687830 8.729125 -4.594418
v -4.685214 0.118716 -4.641880
v 4.685419 8.731956 -4.591570
v -4.687711 8.731296 -4.988111
v -4.687830 8.729125 -4.594418
v 4.685538 8.734128 -4.985266
v -4.685095 0.120886 -5.035574
v -4.687711 8.731296 -4.988111
v 4.688154 0.123718 -5.032729
v -4.685214 0.118716 -4.641880
v -4.685095 0.120886 -5.035574
v 4.688154 0.123718 -5.032729
v 4.685419 8.731956 -4.591570
v 4.688035 0.121548 -4.639034
v -4.685214 0.118716 -4.641880
v -4.687711 8.731296 -4.988111
v -4.685095 0.120886 -5.035574
v 4.685419 8.731956 -4.591570
v 4.685538 8.734128 -4.985266
v 4.688154 0.123718 -5.032729
v 4.688035 0.121548 -4.639034
v 4.685538 8.734128 -4.985266
v -4.687830 8.729125 -4.594418
vn -0.0003 -0.0055 1.0000
vn -0.0003 1.0000 0.0055
vn 0.0003 0.0055 -1.0000
vn 0.0003 -1.0000 -0.0055
vn 1.0000 0.0003 0.0003
vn -1.0000 -0.0003 -0.0003
usemtl MediumGrey.003
s 1
f 1//1 2//1 3//1
f 4//2 5//2 6//2
f 7//3 8//3 9//3
f 10//4 11//4 12//4
f 13//5 14//5 15//5
f 16//6 17//6 18//6
f 1//1 19//1 2//1
f 4//2 20//2 5//2
f 7//3 21//3 8//3
f 10//4 22//4 11//4
f 13//5 23//5 14//5
f 16//6 24//6 17//6
